<svg width="416" height="1173" viewBox="0 0 416 1173" fill="none" xmlns="http://www.w3.org/2000/svg">
<g clip-path="url(#clip0_20_901)">
<path d="M208 587L416 1173H0L208 587Z" fill="#009688"/>
<path d="M208 587L0 1H416L208 587Z" fill="#333333"/>
<path d="M207.5 586L415 0L416 1173L207.5 586Z" fill="#00C853"/>
<path d="M208.5 587L1 1173L0 0L208.5 587Z" fill="#00665C"/>
<path d="M108.22 963.056H115.74V966H104.572V943.76H108.22V963.056ZM122.439 946.704V953.232H130.119V956.208H122.439V963.024H131.079V966H118.791V943.728H131.079V946.704H122.439ZM149.94 943.76V946.736H144.02V966H140.372V946.736H134.42V943.76H149.94ZM154.21 943.76H158.178L154.818 951.376H152.258L154.21 943.76ZM168.712 966.224C167.219 966.224 165.875 965.968 164.68 965.456C163.486 964.923 162.547 964.176 161.864 963.216C161.182 962.256 160.84 961.136 160.84 959.856H164.744C164.83 960.816 165.203 961.605 165.864 962.224C166.547 962.843 167.496 963.152 168.712 963.152C169.971 963.152 170.952 962.853 171.656 962.256C172.36 961.637 172.712 960.848 172.712 959.888C172.712 959.141 172.488 958.533 172.04 958.064C171.614 957.595 171.07 957.232 170.408 956.976C169.768 956.72 168.872 956.443 167.72 956.144C166.27 955.76 165.086 955.376 164.168 954.992C163.272 954.587 162.504 953.968 161.864 953.136C161.224 952.304 160.904 951.195 160.904 949.808C160.904 948.528 161.224 947.408 161.864 946.448C162.504 945.488 163.4 944.752 164.552 944.24C165.704 943.728 167.038 943.472 168.552 943.472C170.707 943.472 172.467 944.016 173.832 945.104C175.219 946.171 175.987 947.643 176.136 949.52H172.104C172.04 948.709 171.656 948.016 170.952 947.44C170.248 946.864 169.32 946.576 168.168 946.576C167.123 946.576 166.27 946.843 165.608 947.376C164.947 947.909 164.616 948.677 164.616 949.68C164.616 950.363 164.819 950.928 165.224 951.376C165.651 951.803 166.184 952.144 166.824 952.4C167.464 952.656 168.339 952.933 169.448 953.232C170.92 953.637 172.115 954.043 173.032 954.448C173.971 954.853 174.76 955.483 175.4 956.336C176.062 957.168 176.392 958.288 176.392 959.696C176.392 960.827 176.083 961.893 175.464 962.896C174.867 963.899 173.982 964.709 172.808 965.328C171.656 965.925 170.291 966.224 168.712 966.224ZM187.793 954.832C187.793 952.656 188.295 950.704 189.297 948.976C190.321 947.248 191.697 945.904 193.425 944.944C195.175 943.963 197.084 943.472 199.153 943.472C201.521 943.472 203.623 944.059 205.457 945.232C207.313 946.384 208.657 948.027 209.489 950.16H205.105C204.529 948.987 203.729 948.112 202.705 947.536C201.681 946.96 200.497 946.672 199.153 946.672C197.681 946.672 196.369 947.003 195.217 947.664C194.065 948.325 193.159 949.275 192.497 950.512C191.857 951.749 191.537 953.189 191.537 954.832C191.537 956.475 191.857 957.915 192.497 959.152C193.159 960.389 194.065 961.349 195.217 962.032C196.369 962.693 197.681 963.024 199.153 963.024C200.497 963.024 201.681 962.736 202.705 962.16C203.729 961.584 204.529 960.709 205.105 959.536H209.489C208.657 961.669 207.313 963.312 205.457 964.464C203.623 965.616 201.521 966.192 199.153 966.192C197.063 966.192 195.153 965.712 193.425 964.752C191.697 963.771 190.321 962.416 189.297 960.688C188.295 958.96 187.793 957.008 187.793 954.832ZM225.311 966L220.191 957.104H217.407V966H213.759V943.76H221.439C223.146 943.76 224.586 944.059 225.759 944.656C226.954 945.253 227.839 946.053 228.415 947.056C229.013 948.059 229.311 949.179 229.311 950.416C229.311 951.867 228.885 953.189 228.031 954.384C227.199 955.557 225.909 956.357 224.159 956.784L229.663 966H225.311ZM217.407 954.192H221.439C222.805 954.192 223.829 953.851 224.511 953.168C225.215 952.485 225.567 951.568 225.567 950.416C225.567 949.264 225.226 948.368 224.543 947.728C223.861 947.067 222.826 946.736 221.439 946.736H217.407V954.192ZM237.626 946.704V953.232H245.306V956.208H237.626V963.024H246.266V966H233.978V943.728H246.266V946.704H237.626ZM264.167 961.456H254.855L253.255 966H249.447L257.415 943.728H261.639L269.607 966H265.767L264.167 961.456ZM263.143 958.48L259.527 948.144L255.879 958.48H263.143ZM287.44 943.76V946.736H281.52V966H277.872V946.736H271.92V943.76H287.44ZM294.782 946.704V953.232H302.462V956.208H294.782V963.024H303.422V966H291.134V943.728H303.422V946.704H294.782ZM150.6 1018.03L146.696 1013.81C145.736 1014.09 144.68 1014.22 143.528 1014.22C141.459 1014.22 139.55 1013.74 137.8 1012.78C136.072 1011.8 134.696 1010.45 133.672 1008.72C132.67 1006.97 132.168 1005.01 132.168 1002.83C132.168 1000.66 132.67 998.704 133.672 996.976C134.696 995.248 136.072 993.904 137.8 992.944C139.55 991.963 141.459 991.472 143.528 991.472C145.619 991.472 147.528 991.963 149.256 992.944C151.006 993.904 152.382 995.248 153.384 996.976C154.387 998.704 154.888 1000.66 154.888 1002.83C154.888 1004.88 154.44 1006.74 153.544 1008.4C152.67 1010.04 151.454 1011.37 149.896 1012.37L155.24 1018.03H150.6ZM135.912 1002.83C135.912 1004.47 136.232 1005.93 136.872 1007.18C137.534 1008.42 138.44 1009.38 139.592 1010.06C140.744 1010.73 142.056 1011.06 143.528 1011.06C145 1011.06 146.312 1010.73 147.464 1010.06C148.616 1009.38 149.512 1008.42 150.152 1007.18C150.814 1005.93 151.144 1004.47 151.144 1002.83C151.144 1001.19 150.814 999.749 150.152 998.512C149.512 997.275 148.616 996.325 147.464 995.664C146.312 995.003 145 994.672 143.528 994.672C142.056 994.672 140.744 995.003 139.592 995.664C138.44 996.325 137.534 997.275 136.872 998.512C136.232 999.749 135.912 1001.19 135.912 1002.83ZM170.124 1014L165.004 1005.1H162.22V1014H158.572V991.76H166.252C167.959 991.76 169.399 992.059 170.572 992.656C171.767 993.253 172.652 994.053 173.228 995.056C173.825 996.059 174.124 997.179 174.124 998.416C174.124 999.867 173.697 1001.19 172.844 1002.38C172.012 1003.56 170.721 1004.36 168.972 1004.78L174.476 1014H170.124ZM162.22 1002.19H166.252C167.617 1002.19 168.641 1001.85 169.324 1001.17C170.028 1000.49 170.38 999.568 170.38 998.416C170.38 997.264 170.039 996.368 169.356 995.728C168.673 995.067 167.639 994.736 166.252 994.736H162.22V1002.19ZM177.575 1002.83C177.575 1000.66 178.076 998.704 179.079 996.976C180.103 995.248 181.479 993.904 183.207 992.944C184.956 991.963 186.865 991.472 188.935 991.472C191.303 991.472 193.404 992.059 195.239 993.232C197.095 994.384 198.439 996.027 199.271 998.16H194.887C194.311 996.987 193.511 996.112 192.487 995.536C191.463 994.96 190.279 994.672 188.935 994.672C187.463 994.672 186.151 995.003 184.999 995.664C183.847 996.325 182.94 997.275 182.279 998.512C181.639 999.749 181.319 1001.19 181.319 1002.83C181.319 1004.47 181.639 1005.91 182.279 1007.15C182.94 1008.39 183.847 1009.35 184.999 1010.03C186.151 1010.69 187.463 1011.02 188.935 1011.02C190.279 1011.02 191.463 1010.74 192.487 1010.16C193.511 1009.58 194.311 1008.71 194.887 1007.54H199.271C198.439 1009.67 197.095 1011.31 195.239 1012.46C193.404 1013.62 191.303 1014.19 188.935 1014.19C186.844 1014.19 184.935 1013.71 183.207 1012.75C181.479 1011.77 180.103 1010.42 179.079 1008.69C178.076 1006.96 177.575 1005.01 177.575 1002.83ZM213.685 1014.22C211.615 1014.22 209.706 1013.74 207.957 1012.78C206.229 1011.8 204.853 1010.45 203.829 1008.72C202.826 1006.97 202.325 1005.01 202.325 1002.83C202.325 1000.66 202.826 998.704 203.829 996.976C204.853 995.248 206.229 993.904 207.957 992.944C209.706 991.963 211.615 991.472 213.685 991.472C215.775 991.472 217.685 991.963 219.413 992.944C221.162 993.904 222.538 995.248 223.541 996.976C224.543 998.704 225.045 1000.66 225.045 1002.83C225.045 1005.01 224.543 1006.97 223.541 1008.72C222.538 1010.45 221.162 1011.8 219.413 1012.78C217.685 1013.74 215.775 1014.22 213.685 1014.22ZM213.685 1011.06C215.157 1011.06 216.469 1010.73 217.621 1010.06C218.773 1009.38 219.669 1008.42 220.309 1007.18C220.97 1005.93 221.301 1004.47 221.301 1002.83C221.301 1001.19 220.97 999.749 220.309 998.512C219.669 997.275 218.773 996.325 217.621 995.664C216.469 995.003 215.157 994.672 213.685 994.672C212.213 994.672 210.901 995.003 209.749 995.664C208.597 996.325 207.69 997.275 207.029 998.512C206.389 999.749 206.069 1001.19 206.069 1002.83C206.069 1004.47 206.389 1005.93 207.029 1007.18C207.69 1008.42 208.597 1009.38 209.749 1010.06C210.901 1010.73 212.213 1011.06 213.685 1011.06ZM235.898 991.76C238.266 991.76 240.336 992.219 242.106 993.136C243.898 994.032 245.274 995.333 246.234 997.04C247.216 998.725 247.706 1000.7 247.706 1002.96C247.706 1005.22 247.216 1007.18 246.234 1008.85C245.274 1010.51 243.898 1011.79 242.106 1012.69C240.336 1013.56 238.266 1014 235.898 1014H228.634V991.76H235.898ZM235.898 1011.02C238.501 1011.02 240.496 1010.32 241.882 1008.91C243.269 1007.5 243.962 1005.52 243.962 1002.96C243.962 1000.38 243.269 998.363 241.882 996.912C240.496 995.461 238.501 994.736 235.898 994.736H232.282V1011.02H235.898ZM254.97 994.704V1001.23H262.65V1004.21H254.97V1011.02H263.61V1014H251.322V991.728H263.61V994.704H254.97ZM275.431 1014.22C273.938 1014.22 272.594 1013.97 271.399 1013.46C270.204 1012.92 269.266 1012.18 268.583 1011.22C267.9 1010.26 267.559 1009.14 267.559 1007.86H271.463C271.548 1008.82 271.922 1009.61 272.583 1010.22C273.266 1010.84 274.215 1011.15 275.431 1011.15C276.69 1011.15 277.671 1010.85 278.375 1010.26C279.079 1009.64 279.431 1008.85 279.431 1007.89C279.431 1007.14 279.207 1006.53 278.759 1006.06C278.332 1005.59 277.788 1005.23 277.127 1004.98C276.487 1004.72 275.591 1004.44 274.439 1004.14C272.988 1003.76 271.804 1003.38 270.887 1002.99C269.991 1002.59 269.223 1001.97 268.583 1001.14C267.943 1000.3 267.623 999.195 267.623 997.808C267.623 996.528 267.943 995.408 268.583 994.448C269.223 993.488 270.119 992.752 271.271 992.24C272.423 991.728 273.756 991.472 275.271 991.472C277.426 991.472 279.186 992.016 280.551 993.104C281.938 994.171 282.706 995.643 282.855 997.52H278.823C278.759 996.709 278.375 996.016 277.671 995.44C276.967 994.864 276.039 994.576 274.887 994.576C273.842 994.576 272.988 994.843 272.327 995.376C271.666 995.909 271.335 996.677 271.335 997.68C271.335 998.363 271.538 998.928 271.943 999.376C272.37 999.803 272.903 1000.14 273.543 1000.4C274.183 1000.66 275.058 1000.93 276.167 1001.23C277.639 1001.64 278.834 1002.04 279.751 1002.45C280.69 1002.85 281.479 1003.48 282.119 1004.34C282.78 1005.17 283.111 1006.29 283.111 1007.7C283.111 1008.83 282.802 1009.89 282.183 1010.9C281.586 1011.9 280.7 1012.71 279.527 1013.33C278.375 1013.93 277.01 1014.22 275.431 1014.22ZM138.471 1039.76V1042.74H132.551V1062H128.903V1042.74H122.951V1039.76H138.471ZM152.31 1062.22C150.24 1062.22 148.331 1061.74 146.582 1060.78C144.854 1059.8 143.478 1058.45 142.454 1056.72C141.451 1054.97 140.95 1053.01 140.95 1050.83C140.95 1048.66 141.451 1046.7 142.454 1044.98C143.478 1043.25 144.854 1041.9 146.582 1040.94C148.331 1039.96 150.24 1039.47 152.31 1039.47C154.4 1039.47 156.31 1039.96 158.038 1040.94C159.787 1041.9 161.163 1043.25 162.166 1044.98C163.168 1046.7 163.67 1048.66 163.67 1050.83C163.67 1053.01 163.168 1054.97 162.166 1056.72C161.163 1058.45 159.787 1059.8 158.038 1060.78C156.31 1061.74 154.4 1062.22 152.31 1062.22ZM152.31 1059.06C153.782 1059.06 155.094 1058.73 156.246 1058.06C157.398 1057.38 158.294 1056.42 158.934 1055.18C159.595 1053.93 159.926 1052.47 159.926 1050.83C159.926 1049.19 159.595 1047.75 158.934 1046.51C158.294 1045.27 157.398 1044.33 156.246 1043.66C155.094 1043 153.782 1042.67 152.31 1042.67C150.838 1042.67 149.526 1043 148.374 1043.66C147.222 1044.33 146.315 1045.27 145.654 1046.51C145.014 1047.75 144.694 1049.19 144.694 1050.83C144.694 1052.47 145.014 1053.93 145.654 1055.18C146.315 1056.42 147.222 1057.38 148.374 1058.06C149.526 1058.73 150.838 1059.06 152.31 1059.06ZM183.355 1046.16C182.779 1045.05 181.979 1044.22 180.955 1043.66C179.931 1043.09 178.747 1042.8 177.403 1042.8C175.931 1042.8 174.619 1043.13 173.467 1043.79C172.315 1044.45 171.409 1045.39 170.747 1046.61C170.107 1047.82 169.787 1049.23 169.787 1050.83C169.787 1052.43 170.107 1053.85 170.747 1055.09C171.409 1056.3 172.315 1057.24 173.467 1057.9C174.619 1058.57 175.931 1058.9 177.403 1058.9C179.387 1058.9 180.998 1058.34 182.235 1057.23C183.473 1056.12 184.23 1054.62 184.507 1052.72H176.155V1049.81H188.411V1052.66C188.177 1054.38 187.558 1055.97 186.555 1057.42C185.574 1058.87 184.283 1060.04 182.683 1060.91C181.105 1061.77 179.345 1062.19 177.403 1062.19C175.313 1062.19 173.403 1061.71 171.675 1060.75C169.947 1059.77 168.571 1058.42 167.547 1056.69C166.545 1054.96 166.043 1053.01 166.043 1050.83C166.043 1048.66 166.545 1046.7 167.547 1044.98C168.571 1043.25 169.947 1041.9 171.675 1040.94C173.425 1039.96 175.334 1039.47 177.403 1039.47C179.771 1039.47 181.873 1040.06 183.707 1041.23C185.563 1042.38 186.907 1044.03 187.739 1046.16H183.355ZM195.657 1042.7V1049.23H203.337V1052.21H195.657V1059.02H204.297V1062H192.009V1039.73H204.297V1042.7H195.657ZM223.159 1039.76V1042.74H217.239V1062H213.591V1042.74H207.639V1039.76H223.159ZM244.613 1039.76V1062H240.965V1052.27H230.501V1062H226.853V1039.76H230.501V1049.3H240.965V1039.76H244.613ZM253.064 1042.7V1049.23H260.744V1052.21H253.064V1059.02H261.704V1062H249.416V1039.73H261.704V1042.7H253.064ZM277.749 1062L272.629 1053.1H269.845V1062H266.197V1039.76H273.877C275.584 1039.76 277.024 1040.06 278.197 1040.66C279.392 1041.25 280.277 1042.05 280.853 1043.06C281.45 1044.06 281.749 1045.18 281.749 1046.42C281.749 1047.87 281.322 1049.19 280.469 1050.38C279.637 1051.56 278.346 1052.36 276.597 1052.78L282.101 1062H277.749ZM269.845 1050.19H273.877C275.242 1050.19 276.266 1049.85 276.949 1049.17C277.653 1048.49 278.005 1047.57 278.005 1046.42C278.005 1045.26 277.664 1044.37 276.981 1043.73C276.298 1043.07 275.264 1042.74 273.877 1042.74H269.845V1050.19ZM290.992 1039.76L290.576 1055.28H287.536L287.12 1039.76H290.992ZM289.168 1062.22C288.506 1062.22 287.952 1062 287.504 1061.55C287.056 1061.1 286.832 1060.55 286.832 1059.89C286.832 1059.23 287.056 1058.67 287.504 1058.22C287.952 1057.78 288.506 1057.55 289.168 1057.55C289.808 1057.55 290.352 1057.78 290.8 1058.22C291.248 1058.67 291.472 1059.23 291.472 1059.89C291.472 1060.55 291.248 1061.1 290.8 1061.55C290.352 1062 289.808 1062.22 289.168 1062.22Z" fill="#F9F9F9"/>
<path d="M176 585.693L57.5721 782L57 393L176 585.693Z" fill="#95A5A7"/>
<path d="M236 589.307L354.428 393L355 782L236 589.307Z" fill="#333333"/>
</g>
<defs>
<clipPath id="clip0_20_901">
<rect width="416" height="1173" fill="white"/>
</clipPath>
</defs>
</svg>
