<svg width="416" height="900" viewBox="0 0 416 900" fill="none" xmlns="http://www.w3.org/2000/svg">
<g clip-path="url(#clip0_51_600)">
<path d="M208.5 450L416 900H1L208.5 450Z" fill="#009688"/>
<path d="M208 450L0 0L416 0L208 450Z" fill="#040316"/>
<path d="M207 449.616L416 0.00012207L416 900L207 449.616Z" fill="#00C853"/>
<path d="M208 450.384L1 900L0 0L208 450.384Z" fill="#00665C"/>
<path d="M108.22 727.056H115.74V730H104.572V707.76H108.22V727.056ZM122.439 710.704V717.232H130.119V720.208H122.439V727.024H131.079V730H118.791V707.728H131.079V710.704H122.439ZM149.94 707.76V710.736H144.02V730H140.372V710.736H134.42V707.76H149.94ZM154.21 707.76H158.178L154.818 715.376H152.258L154.21 707.76ZM168.712 730.224C167.219 730.224 165.875 729.968 164.68 729.456C163.486 728.923 162.547 728.176 161.864 727.216C161.182 726.256 160.84 725.136 160.84 723.856H164.744C164.83 724.816 165.203 725.605 165.864 726.224C166.547 726.843 167.496 727.152 168.712 727.152C169.971 727.152 170.952 726.853 171.656 726.256C172.36 725.637 172.712 724.848 172.712 723.888C172.712 723.141 172.488 722.533 172.04 722.064C171.614 721.595 171.07 721.232 170.408 720.976C169.768 720.72 168.872 720.443 167.72 720.144C166.27 719.76 165.086 719.376 164.168 718.992C163.272 718.587 162.504 717.968 161.864 717.136C161.224 716.304 160.904 715.195 160.904 713.808C160.904 712.528 161.224 711.408 161.864 710.448C162.504 709.488 163.4 708.752 164.552 708.24C165.704 707.728 167.038 707.472 168.552 707.472C170.707 707.472 172.467 708.016 173.832 709.104C175.219 710.171 175.987 711.643 176.136 713.52H172.104C172.04 712.709 171.656 712.016 170.952 711.44C170.248 710.864 169.32 710.576 168.168 710.576C167.123 710.576 166.27 710.843 165.608 711.376C164.947 711.909 164.616 712.677 164.616 713.68C164.616 714.363 164.819 714.928 165.224 715.376C165.651 715.803 166.184 716.144 166.824 716.4C167.464 716.656 168.339 716.933 169.448 717.232C170.92 717.637 172.115 718.043 173.032 718.448C173.971 718.853 174.76 719.483 175.4 720.336C176.062 721.168 176.392 722.288 176.392 723.696C176.392 724.827 176.083 725.893 175.464 726.896C174.867 727.899 173.982 728.709 172.808 729.328C171.656 729.925 170.291 730.224 168.712 730.224ZM187.793 718.832C187.793 716.656 188.295 714.704 189.297 712.976C190.321 711.248 191.697 709.904 193.425 708.944C195.175 707.963 197.084 707.472 199.153 707.472C201.521 707.472 203.623 708.059 205.457 709.232C207.313 710.384 208.657 712.027 209.489 714.16H205.105C204.529 712.987 203.729 712.112 202.705 711.536C201.681 710.96 200.497 710.672 199.153 710.672C197.681 710.672 196.369 711.003 195.217 711.664C194.065 712.325 193.159 713.275 192.497 714.512C191.857 715.749 191.537 717.189 191.537 718.832C191.537 720.475 191.857 721.915 192.497 723.152C193.159 724.389 194.065 725.349 195.217 726.032C196.369 726.693 197.681 727.024 199.153 727.024C200.497 727.024 201.681 726.736 202.705 726.16C203.729 725.584 204.529 724.709 205.105 723.536H209.489C208.657 725.669 207.313 727.312 205.457 728.464C203.623 729.616 201.521 730.192 199.153 730.192C197.063 730.192 195.153 729.712 193.425 728.752C191.697 727.771 190.321 726.416 189.297 724.688C188.295 722.96 187.793 721.008 187.793 718.832ZM225.311 730L220.191 721.104H217.407V730H213.759V707.76H221.439C223.146 707.76 224.586 708.059 225.759 708.656C226.954 709.253 227.839 710.053 228.415 711.056C229.013 712.059 229.311 713.179 229.311 714.416C229.311 715.867 228.885 717.189 228.031 718.384C227.199 719.557 225.909 720.357 224.159 720.784L229.663 730H225.311ZM217.407 718.192H221.439C222.805 718.192 223.829 717.851 224.511 717.168C225.215 716.485 225.567 715.568 225.567 714.416C225.567 713.264 225.226 712.368 224.543 711.728C223.861 711.067 222.826 710.736 221.439 710.736H217.407V718.192ZM237.626 710.704V717.232H245.306V720.208H237.626V727.024H246.266V730H233.978V707.728H246.266V710.704H237.626ZM264.167 725.456H254.855L253.255 730H249.447L257.415 707.728H261.639L269.607 730H265.767L264.167 725.456ZM263.143 722.48L259.527 712.144L255.879 722.48H263.143ZM287.44 707.76V710.736H281.52V730H277.872V710.736H271.92V707.76H287.44ZM294.782 710.704V717.232H302.462V720.208H294.782V727.024H303.422V730H291.134V707.728H303.422V710.704H294.782ZM150.6 782.032L146.696 777.808C145.736 778.085 144.68 778.224 143.528 778.224C141.459 778.224 139.55 777.744 137.8 776.784C136.072 775.803 134.696 774.448 133.672 772.72C132.67 770.971 132.168 769.008 132.168 766.832C132.168 764.656 132.67 762.704 133.672 760.976C134.696 759.248 136.072 757.904 137.8 756.944C139.55 755.963 141.459 755.472 143.528 755.472C145.619 755.472 147.528 755.963 149.256 756.944C151.006 757.904 152.382 759.248 153.384 760.976C154.387 762.704 154.888 764.656 154.888 766.832C154.888 768.88 154.44 770.736 153.544 772.4C152.67 774.043 151.454 775.365 149.896 776.368L155.24 782.032H150.6ZM135.912 766.832C135.912 768.475 136.232 769.925 136.872 771.184C137.534 772.421 138.44 773.381 139.592 774.064C140.744 774.725 142.056 775.056 143.528 775.056C145 775.056 146.312 774.725 147.464 774.064C148.616 773.381 149.512 772.421 150.152 771.184C150.814 769.925 151.144 768.475 151.144 766.832C151.144 765.189 150.814 763.749 150.152 762.512C149.512 761.275 148.616 760.325 147.464 759.664C146.312 759.003 145 758.672 143.528 758.672C142.056 758.672 140.744 759.003 139.592 759.664C138.44 760.325 137.534 761.275 136.872 762.512C136.232 763.749 135.912 765.189 135.912 766.832ZM170.124 778L165.004 769.104H162.22V778H158.572V755.76H166.252C167.959 755.76 169.399 756.059 170.572 756.656C171.767 757.253 172.652 758.053 173.228 759.056C173.825 760.059 174.124 761.179 174.124 762.416C174.124 763.867 173.697 765.189 172.844 766.384C172.012 767.557 170.721 768.357 168.972 768.784L174.476 778H170.124ZM162.22 766.192H166.252C167.617 766.192 168.641 765.851 169.324 765.168C170.028 764.485 170.38 763.568 170.38 762.416C170.38 761.264 170.039 760.368 169.356 759.728C168.673 759.067 167.639 758.736 166.252 758.736H162.22V766.192ZM177.575 766.832C177.575 764.656 178.076 762.704 179.079 760.976C180.103 759.248 181.479 757.904 183.207 756.944C184.956 755.963 186.865 755.472 188.935 755.472C191.303 755.472 193.404 756.059 195.239 757.232C197.095 758.384 198.439 760.027 199.271 762.16H194.887C194.311 760.987 193.511 760.112 192.487 759.536C191.463 758.96 190.279 758.672 188.935 758.672C187.463 758.672 186.151 759.003 184.999 759.664C183.847 760.325 182.94 761.275 182.279 762.512C181.639 763.749 181.319 765.189 181.319 766.832C181.319 768.475 181.639 769.915 182.279 771.152C182.94 772.389 183.847 773.349 184.999 774.032C186.151 774.693 187.463 775.024 188.935 775.024C190.279 775.024 191.463 774.736 192.487 774.16C193.511 773.584 194.311 772.709 194.887 771.536H199.271C198.439 773.669 197.095 775.312 195.239 776.464C193.404 777.616 191.303 778.192 188.935 778.192C186.844 778.192 184.935 777.712 183.207 776.752C181.479 775.771 180.103 774.416 179.079 772.688C178.076 770.96 177.575 769.008 177.575 766.832ZM213.685 778.224C211.615 778.224 209.706 777.744 207.957 776.784C206.229 775.803 204.853 774.448 203.829 772.72C202.826 770.971 202.325 769.008 202.325 766.832C202.325 764.656 202.826 762.704 203.829 760.976C204.853 759.248 206.229 757.904 207.957 756.944C209.706 755.963 211.615 755.472 213.685 755.472C215.775 755.472 217.685 755.963 219.413 756.944C221.162 757.904 222.538 759.248 223.541 760.976C224.543 762.704 225.045 764.656 225.045 766.832C225.045 769.008 224.543 770.971 223.541 772.72C222.538 774.448 221.162 775.803 219.413 776.784C217.685 777.744 215.775 778.224 213.685 778.224ZM213.685 775.056C215.157 775.056 216.469 774.725 217.621 774.064C218.773 773.381 219.669 772.421 220.309 771.184C220.97 769.925 221.301 768.475 221.301 766.832C221.301 765.189 220.97 763.749 220.309 762.512C219.669 761.275 218.773 760.325 217.621 759.664C216.469 759.003 215.157 758.672 213.685 758.672C212.213 758.672 210.901 759.003 209.749 759.664C208.597 760.325 207.69 761.275 207.029 762.512C206.389 763.749 206.069 765.189 206.069 766.832C206.069 768.475 206.389 769.925 207.029 771.184C207.69 772.421 208.597 773.381 209.749 774.064C210.901 774.725 212.213 775.056 213.685 775.056ZM235.898 755.76C238.266 755.76 240.336 756.219 242.106 757.136C243.898 758.032 245.274 759.333 246.234 761.04C247.216 762.725 247.706 764.699 247.706 766.96C247.706 769.221 247.216 771.184 246.234 772.848C245.274 774.512 243.898 775.792 242.106 776.688C240.336 777.563 238.266 778 235.898 778H228.634V755.76H235.898ZM235.898 775.024C238.501 775.024 240.496 774.32 241.882 772.912C243.269 771.504 243.962 769.52 243.962 766.96C243.962 764.379 243.269 762.363 241.882 760.912C240.496 759.461 238.501 758.736 235.898 758.736H232.282V775.024H235.898ZM254.97 758.704V765.232H262.65V768.208H254.97V775.024H263.61V778H251.322V755.728H263.61V758.704H254.97ZM275.431 778.224C273.938 778.224 272.594 777.968 271.399 777.456C270.204 776.923 269.266 776.176 268.583 775.216C267.9 774.256 267.559 773.136 267.559 771.856H271.463C271.548 772.816 271.922 773.605 272.583 774.224C273.266 774.843 274.215 775.152 275.431 775.152C276.69 775.152 277.671 774.853 278.375 774.256C279.079 773.637 279.431 772.848 279.431 771.888C279.431 771.141 279.207 770.533 278.759 770.064C278.332 769.595 277.788 769.232 277.127 768.976C276.487 768.72 275.591 768.443 274.439 768.144C272.988 767.76 271.804 767.376 270.887 766.992C269.991 766.587 269.223 765.968 268.583 765.136C267.943 764.304 267.623 763.195 267.623 761.808C267.623 760.528 267.943 759.408 268.583 758.448C269.223 757.488 270.119 756.752 271.271 756.24C272.423 755.728 273.756 755.472 275.271 755.472C277.426 755.472 279.186 756.016 280.551 757.104C281.938 758.171 282.706 759.643 282.855 761.52H278.823C278.759 760.709 278.375 760.016 277.671 759.44C276.967 758.864 276.039 758.576 274.887 758.576C273.842 758.576 272.988 758.843 272.327 759.376C271.666 759.909 271.335 760.677 271.335 761.68C271.335 762.363 271.538 762.928 271.943 763.376C272.37 763.803 272.903 764.144 273.543 764.4C274.183 764.656 275.058 764.933 276.167 765.232C277.639 765.637 278.834 766.043 279.751 766.448C280.69 766.853 281.479 767.483 282.119 768.336C282.78 769.168 283.111 770.288 283.111 771.696C283.111 772.827 282.802 773.893 282.183 774.896C281.586 775.899 280.7 776.709 279.527 777.328C278.375 777.925 277.01 778.224 275.431 778.224ZM138.471 803.76V806.736H132.551V826H128.903V806.736H122.951V803.76H138.471ZM152.31 826.224C150.24 826.224 148.331 825.744 146.582 824.784C144.854 823.803 143.478 822.448 142.454 820.72C141.451 818.971 140.95 817.008 140.95 814.832C140.95 812.656 141.451 810.704 142.454 808.976C143.478 807.248 144.854 805.904 146.582 804.944C148.331 803.963 150.24 803.472 152.31 803.472C154.4 803.472 156.31 803.963 158.038 804.944C159.787 805.904 161.163 807.248 162.166 808.976C163.168 810.704 163.67 812.656 163.67 814.832C163.67 817.008 163.168 818.971 162.166 820.72C161.163 822.448 159.787 823.803 158.038 824.784C156.31 825.744 154.4 826.224 152.31 826.224ZM152.31 823.056C153.782 823.056 155.094 822.725 156.246 822.064C157.398 821.381 158.294 820.421 158.934 819.184C159.595 817.925 159.926 816.475 159.926 814.832C159.926 813.189 159.595 811.749 158.934 810.512C158.294 809.275 157.398 808.325 156.246 807.664C155.094 807.003 153.782 806.672 152.31 806.672C150.838 806.672 149.526 807.003 148.374 807.664C147.222 808.325 146.315 809.275 145.654 810.512C145.014 811.749 144.694 813.189 144.694 814.832C144.694 816.475 145.014 817.925 145.654 819.184C146.315 820.421 147.222 821.381 148.374 822.064C149.526 822.725 150.838 823.056 152.31 823.056ZM183.355 810.16C182.779 809.051 181.979 808.219 180.955 807.664C179.931 807.088 178.747 806.8 177.403 806.8C175.931 806.8 174.619 807.131 173.467 807.792C172.315 808.453 171.409 809.392 170.747 810.608C170.107 811.824 169.787 813.232 169.787 814.832C169.787 816.432 170.107 817.851 170.747 819.088C171.409 820.304 172.315 821.243 173.467 821.904C174.619 822.565 175.931 822.896 177.403 822.896C179.387 822.896 180.998 822.341 182.235 821.232C183.473 820.123 184.23 818.619 184.507 816.72H176.155V813.808H188.411V816.656C188.177 818.384 187.558 819.973 186.555 821.424C185.574 822.875 184.283 824.037 182.683 824.912C181.105 825.765 179.345 826.192 177.403 826.192C175.313 826.192 173.403 825.712 171.675 824.752C169.947 823.771 168.571 822.416 167.547 820.688C166.545 818.96 166.043 817.008 166.043 814.832C166.043 812.656 166.545 810.704 167.547 808.976C168.571 807.248 169.947 805.904 171.675 804.944C173.425 803.963 175.334 803.472 177.403 803.472C179.771 803.472 181.873 804.059 183.707 805.232C185.563 806.384 186.907 808.027 187.739 810.16H183.355ZM195.657 806.704V813.232H203.337V816.208H195.657V823.024H204.297V826H192.009V803.728H204.297V806.704H195.657ZM223.159 803.76V806.736H217.239V826H213.591V806.736H207.639V803.76H223.159ZM244.613 803.76V826H240.965V816.272H230.501V826H226.853V803.76H230.501V813.296H240.965V803.76H244.613ZM253.064 806.704V813.232H260.744V816.208H253.064V823.024H261.704V826H249.416V803.728H261.704V806.704H253.064ZM277.749 826L272.629 817.104H269.845V826H266.197V803.76H273.877C275.584 803.76 277.024 804.059 278.197 804.656C279.392 805.253 280.277 806.053 280.853 807.056C281.45 808.059 281.749 809.179 281.749 810.416C281.749 811.867 281.322 813.189 280.469 814.384C279.637 815.557 278.346 816.357 276.597 816.784L282.101 826H277.749ZM269.845 814.192H273.877C275.242 814.192 276.266 813.851 276.949 813.168C277.653 812.485 278.005 811.568 278.005 810.416C278.005 809.264 277.664 808.368 276.981 807.728C276.298 807.067 275.264 806.736 273.877 806.736H269.845V814.192ZM290.992 803.76L290.576 819.28H287.536L287.12 803.76H290.992ZM289.168 826.224C288.506 826.224 287.952 826 287.504 825.552C287.056 825.104 286.832 824.549 286.832 823.888C286.832 823.227 287.056 822.672 287.504 822.224C287.952 821.776 288.506 821.552 289.168 821.552C289.808 821.552 290.352 821.776 290.8 822.224C291.248 822.672 291.472 823.227 291.472 823.888C291.472 824.549 291.248 825.104 290.8 825.552C290.352 826 289.808 826.224 289.168 826.224Z" fill="#F9F9F9"/>
<path d="M176 447.693L57.5721 644L57 255L176 447.693Z" fill="#95A5A7"/>
<path d="M232 451.307L350.428 255L351 644L232 451.307Z" fill="#333333"/>
</g>
<defs>
<clipPath id="clip0_51_600">
<rect width="416" height="900" fill="white"/>
</clipPath>
</defs>
</svg>
