<svg width="430" height="300" viewBox="0 0 430 300" fill="none" xmlns="http://www.w3.org/2000/svg">
<g clip-path="url(#clip0_16_743)">
<path d="M215 150L430 300L0 300L215 150Z" fill="#009688"/>
<path d="M215 150L0 0H430L215 150Z" fill="#333333"/>
<path d="M215 150L0 300L0 0L215 150Z" fill="#00665C"/>
<path d="M179 150.5L97 214L97 87L179 150.5Z" fill="#95A5A7"/>
<path d="M215 150L430 0V300L215 150Z" fill="#00C853"/>
<path d="M249 150.5L331 87V214L249 150.5Z" fill="#333333"/>
<path d="M162.932 212.16H167.632V214H160.652V200.1H162.932V212.16ZM171.819 201.94V206.02H176.619V207.88H171.819V212.14H177.219V214H169.539V200.08H177.219V201.94H171.819ZM189.007 200.1V201.96H185.307V214H183.027V201.96H179.307V200.1H189.007ZM191.676 200.1H194.156L192.056 204.86H190.456L191.676 200.1ZM200.74 214.14C199.807 214.14 198.967 213.98 198.22 213.66C197.473 213.327 196.887 212.86 196.46 212.26C196.033 211.66 195.82 210.96 195.82 210.16H198.26C198.313 210.76 198.547 211.253 198.96 211.64C199.387 212.027 199.98 212.22 200.74 212.22C201.527 212.22 202.14 212.033 202.58 211.66C203.02 211.273 203.24 210.78 203.24 210.18C203.24 209.713 203.1 209.333 202.82 209.04C202.553 208.747 202.213 208.52 201.8 208.36C201.4 208.2 200.84 208.027 200.12 207.84C199.213 207.6 198.473 207.36 197.9 207.12C197.34 206.867 196.86 206.48 196.46 205.96C196.06 205.44 195.86 204.747 195.86 203.88C195.86 203.08 196.06 202.38 196.46 201.78C196.86 201.18 197.42 200.72 198.14 200.4C198.86 200.08 199.693 199.92 200.64 199.92C201.987 199.92 203.087 200.26 203.94 200.94C204.807 201.607 205.287 202.527 205.38 203.7H202.86C202.82 203.193 202.58 202.76 202.14 202.4C201.7 202.04 201.12 201.86 200.4 201.86C199.747 201.86 199.213 202.027 198.8 202.36C198.387 202.693 198.18 203.173 198.18 203.8C198.18 204.227 198.307 204.58 198.56 204.86C198.827 205.127 199.16 205.34 199.56 205.5C199.96 205.66 200.507 205.833 201.2 206.02C202.12 206.273 202.867 206.527 203.44 206.78C204.027 207.033 204.52 207.427 204.92 207.96C205.333 208.48 205.54 209.18 205.54 210.06C205.54 210.767 205.347 211.433 204.96 212.06C204.587 212.687 204.033 213.193 203.3 213.58C202.58 213.953 201.727 214.14 200.74 214.14ZM228.066 200.1V214H225.786V204.48L221.546 214H219.966L215.706 204.48V214H213.426V200.1H215.886L220.766 211L225.626 200.1H228.066ZM239.443 211.16H233.623L232.623 214H230.243L235.223 200.08H237.863L242.843 214H240.443L239.443 211.16ZM238.803 209.3L236.543 202.84L234.263 209.3H238.803ZM252.668 214L247.288 207.78V214H245.008V200.1H247.288V206.44L252.688 200.1H255.548L249.508 207.06L255.648 214H252.668ZM259.944 201.94V206.02H264.744V207.88H259.944V212.14H265.344V214H257.664V200.08H265.344V201.94H259.944ZM167.434 230.1V244H165.154V230.1H167.434ZM179.408 230.1V231.96H175.708V244H173.428V231.96H169.708V230.1H179.408ZM198.012 230.1V244H195.732V237.92H189.192V244H186.912V230.1H189.192V236.06H195.732V230.1H198.012ZM209.394 241.16H203.574L202.574 244H200.194L205.174 230.08H207.814L212.794 244H210.394L209.394 241.16ZM208.754 239.3L206.494 232.84L204.214 239.3H208.754ZM224.679 234.24C224.679 234.947 224.512 235.613 224.179 236.24C223.846 236.867 223.312 237.38 222.579 237.78C221.846 238.167 220.906 238.36 219.759 238.36H217.239V244H214.959V230.1H219.759C220.826 230.1 221.726 230.287 222.459 230.66C223.206 231.02 223.759 231.513 224.119 232.14C224.492 232.767 224.679 233.467 224.679 234.24ZM219.759 236.5C220.626 236.5 221.272 236.307 221.699 235.92C222.126 235.52 222.339 234.96 222.339 234.24C222.339 232.72 221.479 231.96 219.759 231.96H217.239V236.5H219.759ZM236.574 234.24C236.574 234.947 236.407 235.613 236.074 236.24C235.74 236.867 235.207 237.38 234.474 237.78C233.74 238.167 232.8 238.36 231.654 238.36H229.134V244H226.854V230.1H231.654C232.72 230.1 233.62 230.287 234.354 230.66C235.1 231.02 235.654 231.513 236.014 232.14C236.387 232.767 236.574 233.467 236.574 234.24ZM231.654 236.5C232.52 236.5 233.167 236.307 233.594 235.92C234.02 235.52 234.234 234.96 234.234 234.24C234.234 232.72 233.374 231.96 231.654 231.96H229.134V236.5H231.654ZM241.028 231.94V236.02H245.828V237.88H241.028V242.14H246.428V244H238.748V230.08H246.428V231.94H241.028ZM260.656 244H258.376L251.516 233.62V244H249.236V230.08H251.516L258.376 240.44V230.08H260.656V244ZM172.044 260.1V261.96H168.344V274H166.064V261.96H162.344V260.1H172.044ZM180.694 274.14C179.4 274.14 178.207 273.84 177.114 273.24C176.034 272.627 175.174 271.78 174.534 270.7C173.907 269.607 173.594 268.38 173.594 267.02C173.594 265.66 173.907 264.44 174.534 263.36C175.174 262.28 176.034 261.44 177.114 260.84C178.207 260.227 179.4 259.92 180.694 259.92C182 259.92 183.194 260.227 184.274 260.84C185.367 261.44 186.227 262.28 186.854 263.36C187.48 264.44 187.794 265.66 187.794 267.02C187.794 268.38 187.48 269.607 186.854 270.7C186.227 271.78 185.367 272.627 184.274 273.24C183.194 273.84 182 274.14 180.694 274.14ZM180.694 272.16C181.614 272.16 182.434 271.953 183.154 271.54C183.874 271.113 184.434 270.513 184.834 269.74C185.247 268.953 185.454 268.047 185.454 267.02C185.454 265.993 185.247 265.093 184.834 264.32C184.434 263.547 183.874 262.953 183.154 262.54C182.434 262.127 181.614 261.92 180.694 261.92C179.774 261.92 178.954 262.127 178.234 262.54C177.514 262.953 176.947 263.547 176.534 264.32C176.134 265.093 175.934 265.993 175.934 267.02C175.934 268.047 176.134 268.953 176.534 269.74C176.947 270.513 177.514 271.113 178.234 271.54C178.954 271.953 179.774 272.16 180.694 272.16ZM200.097 264.1C199.737 263.407 199.237 262.887 198.597 262.54C197.957 262.18 197.217 262 196.377 262C195.457 262 194.637 262.207 193.917 262.62C193.197 263.033 192.63 263.62 192.217 264.38C191.817 265.14 191.617 266.02 191.617 267.02C191.617 268.02 191.817 268.907 192.217 269.68C192.63 270.44 193.197 271.027 193.917 271.44C194.637 271.853 195.457 272.06 196.377 272.06C197.617 272.06 198.624 271.713 199.397 271.02C200.17 270.327 200.644 269.387 200.817 268.2H195.597V266.38H203.257V268.16C203.11 269.24 202.724 270.233 202.097 271.14C201.484 272.047 200.677 272.773 199.677 273.32C198.69 273.853 197.59 274.12 196.377 274.12C195.07 274.12 193.877 273.82 192.797 273.22C191.717 272.607 190.857 271.76 190.217 270.68C189.59 269.6 189.277 268.38 189.277 267.02C189.277 265.66 189.59 264.44 190.217 263.36C190.857 262.28 191.717 261.44 192.797 260.84C193.89 260.227 195.084 259.92 196.377 259.92C197.857 259.92 199.17 260.287 200.317 261.02C201.477 261.74 202.317 262.767 202.837 264.1H200.097ZM207.786 261.94V266.02H212.586V267.88H207.786V272.14H213.186V274H205.506V260.08H213.186V261.94H207.786ZM224.974 260.1V261.96H221.274V274H218.994V261.96H215.274V260.1H224.974ZM238.383 260.1V274H236.103V267.92H229.563V274H227.283V260.1H229.563V266.06H236.103V260.1H238.383ZM243.665 261.94V266.02H248.465V267.88H243.665V272.14H249.065V274H241.385V260.08H249.065V261.94H243.665ZM259.093 274L255.893 268.44H254.153V274H251.873V260.1H256.673C257.74 260.1 258.64 260.287 259.373 260.66C260.12 261.033 260.673 261.533 261.033 262.16C261.406 262.787 261.593 263.487 261.593 264.26C261.593 265.167 261.326 265.993 260.793 266.74C260.273 267.473 259.466 267.973 258.373 268.24L261.813 274H259.093ZM254.153 266.62H256.673C257.526 266.62 258.166 266.407 258.593 265.98C259.033 265.553 259.253 264.98 259.253 264.26C259.253 263.54 259.04 262.98 258.613 262.58C258.186 262.167 257.54 261.96 256.673 261.96H254.153V266.62ZM267.37 260.1L267.11 269.8H265.21L264.95 260.1H267.37ZM266.23 274.14C265.816 274.14 265.47 274 265.19 273.72C264.91 273.44 264.77 273.093 264.77 272.68C264.77 272.267 264.91 271.92 265.19 271.64C265.47 271.36 265.816 271.22 266.23 271.22C266.63 271.22 266.97 271.36 267.25 271.64C267.53 271.92 267.67 272.267 267.67 272.68C267.67 273.093 267.53 273.44 267.25 273.72C266.97 274 266.63 274.14 266.23 274.14Z" fill="#F9F9F9"/>
</g>
<defs>
<clipPath id="clip0_16_743">
<rect width="431" height="300" fill="white"/>
</clipPath>
</defs>
</svg>
