<svg width="50" height="50" viewBox="0 0 50 50" fill="none" xmlns="http://www.w3.org/2000/svg">
<path d="M47.9854 24.9927C47.9854 37.6913 37.6912 47.9854 24.9927 47.9854C12.2942 47.9854 2 37.6913 2 24.9927C2 12.2942 12.2942 2 24.9927 2C37.6912 2 47.9854 12.2942 47.9854 24.9927Z" fill="#FAFAFA" fill-opacity="0.266667" stroke="#333333" stroke-width="4"/>
<path fill-rule="evenodd" clip-rule="evenodd" d="M14.6516 31.1662V18.9188H2.61716C1.95328 18.9188 1.01667 19.436 0.547232 20.5844C0.109128 21.6562 0.111413 23.1958 0.113669 24.7167C0.113831 24.8254 0.113992 24.9341 0.113992 25.0425C0.113992 25.1509 0.113831 25.2596 0.113669 25.3683C0.111413 26.8892 0.109129 28.4288 0.547233 29.5006C1.01667 30.649 1.95328 31.1662 2.61716 31.1662H14.6516Z" fill="#333333"/>
<path d="M11.959 27.3782L1.11864 27.3782C1.01938 26.5046 0.985469 25.396 1.00553 24.3341C1.01873 23.6356 1.05476 22.9837 1.10529 22.4672C1.11425 22.3756 1.12356 22.2894 1.13311 22.209L11.959 22.209L11.959 27.3782Z" stroke="#00C853" stroke-width="2"/>
<path fill-rule="evenodd" clip-rule="evenodd" d="M35.3481 18.9188V31.1662H47.3826V18.9188H35.3481ZM49.4525 29.5006C48.9831 30.649 48.0465 31.1662 47.3826 31.1662V25.0425V18.9188C48.0465 18.9188 48.9831 19.436 49.4525 20.5844C49.8906 21.6562 49.8883 23.1958 49.8861 24.7167C49.8859 24.8254 49.8858 24.9341 49.8858 25.0425C49.8858 25.1509 49.8859 25.2596 49.8861 25.3683C49.8883 26.8892 49.8906 28.4288 49.4525 29.5006Z" fill="#333333"/>
<path d="M38.041 21.7068H48.8814C48.9806 22.5804 49.0145 23.689 48.9945 24.7509C48.9813 25.4494 48.9452 26.1014 48.8947 26.6178C48.8857 26.7094 48.8764 26.7956 48.8669 26.876H38.041V21.7068Z" stroke="#00C853" stroke-width="2"/>
<path d="M31.361 24.9927C31.361 28.5099 28.5098 31.3611 24.9926 31.3611C21.4755 31.3611 18.6243 28.5099 18.6243 24.9927C18.6243 21.4756 21.4755 18.6243 24.9926 18.6243C28.5098 18.6243 31.361 21.4756 31.361 24.9927Z" fill="#00C853" stroke="#333333" stroke-width="2"/>
<ellipse cx="24.1463" cy="21.9558" rx="1.04551" ry="1.04551" fill="#FAFAFA"/>
<path fill-rule="evenodd" clip-rule="evenodd" d="M18.9188 14.8509L31.1663 14.8509V2.81642C31.1663 2.15254 30.649 1.21593 29.5006 0.746495C28.4288 0.308392 26.8893 0.310677 25.3684 0.312933C25.2596 0.313094 25.1509 0.313255 25.0425 0.313255C24.9341 0.313255 24.8255 0.313094 24.7167 0.312933C23.1958 0.310677 21.6562 0.308393 20.5845 0.746496C19.4361 1.21593 18.9188 2.15254 18.9188 2.81642V14.8509Z" fill="#333333"/>
<path d="M22.6172 11.959L22.6172 1.11864C23.4908 1.01938 24.5993 0.985469 25.6612 1.00553C26.3598 1.01873 27.0117 1.05476 27.5282 1.10529C27.6198 1.11425 27.706 1.12356 27.7864 1.13311L27.7864 11.959L22.6172 11.959Z" stroke="#00C853" stroke-width="2"/>
<path fill-rule="evenodd" clip-rule="evenodd" d="M31.1661 35.3483H18.9187V47.3827C18.9187 48.0466 19.4359 48.9832 20.5844 49.4526C21.6561 49.8908 23.1957 49.8885 24.7166 49.8862C24.8253 49.886 24.934 49.8859 25.0424 49.8859C25.1508 49.8859 25.2595 49.886 25.3682 49.8862C26.8891 49.8885 28.4287 49.8908 29.5005 49.4526C30.6489 48.9832 31.1661 48.0466 31.1661 47.3827V35.3483Z" fill="#333333"/>
<path d="M27.5771 38.041V48.8814C26.7035 48.9806 25.595 49.0145 24.5331 48.9945C23.8345 48.9813 23.1826 48.9452 22.6662 48.8947C22.5745 48.8857 22.4884 48.8764 22.4079 48.8669V38.041H27.5771Z" stroke="#00C853" stroke-width="2"/>
<path fill-rule="evenodd" clip-rule="evenodd" d="M10.4552 14.2887C10.4552 16.0209 11.8595 17.4252 13.5917 17.4252C13.7493 17.4252 13.9042 17.4136 14.0556 17.3911L16.6665 17.3553L16.7032 14.6871C16.7197 14.5566 16.7283 14.4236 16.7283 14.2887C16.7283 12.5564 15.324 11.1521 13.5917 11.1521C11.8595 11.1521 10.4552 12.5564 10.4552 14.2887Z" fill="#333333"/>
<path fill-rule="evenodd" clip-rule="evenodd" d="M39.63 36.6925C39.63 34.9602 38.2257 33.556 36.4935 33.556C36.3359 33.556 36.181 33.5676 36.0296 33.59L33.4187 33.6259L33.382 36.2941C33.3655 36.4245 33.3569 36.5575 33.3569 36.6925C33.3569 38.4248 34.7612 39.829 36.4935 39.829C38.2257 39.829 39.63 38.4248 39.63 36.6925Z" fill="#333333"/>
<path fill-rule="evenodd" clip-rule="evenodd" d="M13.5916 39.829C15.3239 39.829 16.7282 38.4248 16.7282 36.6925C16.7282 36.5349 16.7165 36.38 16.6941 36.2286L16.6582 33.6177L13.9901 33.581C13.8596 33.5645 13.7266 33.556 13.5916 33.556C11.8594 33.556 10.4551 34.9602 10.4551 36.6925C10.4551 38.4248 11.8594 39.829 13.5916 39.829Z" fill="#333333"/>
<path fill-rule="evenodd" clip-rule="evenodd" d="M36.4933 11.1521C34.7611 11.1521 33.3568 12.5564 33.3568 14.2887C33.3568 14.4463 33.3684 14.6012 33.3909 14.7525L33.4267 17.3635L36.0949 17.4001C36.2254 17.4167 36.3584 17.4252 36.4933 17.4252C38.2256 17.4252 39.6299 16.0209 39.6299 14.2887C39.6299 12.5564 38.2256 11.1521 36.4933 11.1521Z" fill="#333333"/>
</svg>
